<?xml version="1.0" encoding="UTF-8"?>
<svg id="Camada_1" xmlns="http://www.w3.org/2000/svg" version="1.1" xmlns:xlink="http://www.w3.org/1999/xlink" viewBox="0 0 1097.9 1000">
  <!-- Generator: Adobe Illustrator 29.3.1, SVG Export Plug-In . SVG Version: 2.1.0 Build 151)  -->
  <defs>
    <style>
      .st0 {
        fill: url(#Gradiente_sem_nome_331);
      }

      .st1 {
        fill: url(#Gradiente_sem_nome_33);
      }
    </style>
    <linearGradient id="Gradiente_sem_nome_33" data-name="Gradiente sem nome 33" x1="280.4" y1="224.5" x2="609.7" y2="794.8" gradientUnits="userSpaceOnUse">
      <stop offset="0" stop-color="#254bc2"/>
      <stop offset="1" stop-color="#00218d"/>
    </linearGradient>
    <linearGradient id="Gradiente_sem_nome_331" data-name="Gradiente sem nome 33" x1="548.7" y1="362.2" x2="851.6" y2="886.8" xlink:href="#Gradiente_sem_nome_33"/>
  </defs>
  <path class="st1" d="M683.5,176.7h0s-134.6,440.2-134.6,440.2h0s-79.1,258.7-79.1,258.7h-235.1c-18.8,0-29.4-15.3-23.7-34.1L414.4,176.7l5.6-18.2c5.7-18.8,25.7-34.1,44.5-34.1h169c18.8,0,38.7,15.3,44.5,34.1l5.6,18.2Z"/>
  <path class="st0" d="M863.1,875.6h-235.1l-51.1-167.1,134.6-440.2,175.3,573.2c5.8,18.8-4.8,34.1-23.7,34.1Z"/>
</svg>