<?xml version="1.0" encoding="UTF-8"?>
<svg id="Camada_1" xmlns="http://www.w3.org/2000/svg" version="1.1" xmlns:xlink="http://www.w3.org/1999/xlink" viewBox="0 0 2000 1000">
  <!-- Generator: Adobe Illustrator 29.3.1, SVG Export Plug-In . SVG Version: 2.1.0 Build 151)  -->
  <defs>
    <style>
      .st0 {
        fill: #262626;
      }

      .st1 {
        fill: url(#Gradiente_sem_nome_331);
      }

      .st2 {
        fill: url(#Gradiente_sem_nome_33);
      }
    </style>
    <linearGradient id="Gradiente_sem_nome_33" data-name="Gradiente sem nome 33" x1="285.7" y1="320.9" x2="499.7" y2="691.6" gradientUnits="userSpaceOnUse">
      <stop offset="0" stop-color="#254bc2"/>
      <stop offset="1" stop-color="#00218d"/>
    </linearGradient>
    <linearGradient id="Gradiente_sem_nome_331" data-name="Gradiente sem nome 33" x1="460" y1="410.5" x2="656.9" y2="751.4" xlink:href="#Gradiente_sem_nome_33"/>
  </defs>
  <g>
    <path class="st2" d="M547.6,289.9h0s-87.5,286.1-87.5,286.1h0s-51.4,168.1-51.4,168.1h-152.8c-12.2,0-19.1-9.9-15.4-22.1l132.1-432,3.6-11.9c3.7-12.2,16.7-22.1,28.9-22.1h109.8c12.2,0,25.2,9.9,28.9,22.1l3.6,11.8Z"/>
    <path class="st1" d="M664.4,744.1h-152.8l-33.2-108.6,87.5-286.1,113.9,372.5c3.7,12.2-3.1,22.1-15.4,22.1Z"/>
  </g>
  <g>
    <g>
      <path class="st0" d="M888.5,416.3l41.1,111.2h-25.4l-8.9-24.8h-42.1l-9.1,24.8h-25.3l41.3-111.2h28.3ZM858.9,484.1h30.8l-15.4-44.2-15.4,44.2Z"/>
      <path class="st0" d="M989.4,445.5c4.5,1.4,8.5,3.4,12,6.2,3.5,2.8,6.5,6.1,9,10.1,2.5,4,4.3,8.6,5.3,13.7h-20.8c-.6-2.4-1.5-4.6-2.7-6.5-1.2-1.9-2.6-3.5-4.3-4.8-1.7-1.3-3.7-2.2-5.9-2.9-2.2-.6-4.6-1-7.1-1-3.6,0-6.8.7-9.6,2.1-2.8,1.4-5.1,3.3-6.9,5.7-1.8,2.4-3.2,5.2-4.1,8.4-.9,3.2-1.4,6.5-1.4,10s.4,6.7,1.4,9.8c.9,3.2,2.2,6,4.1,8.4,1.8,2.4,4.1,4.4,6.8,5.8,2.8,1.4,6,2.1,9.7,2.1s5.1-.3,7.2-1c2.2-.6,4.1-1.6,5.8-2.9,1.7-1.3,3.1-2.9,4.4-4.8,1.2-1.9,2.1-4,2.6-6.4h20.8c-2.1,10.6-6.8,18.6-14.1,24-7.3,5.4-16.2,8.1-26.7,8.1s-11.8-1.1-17-3.2c-5.2-2.1-9.7-5.1-13.4-9-3.8-3.9-6.8-8.4-9-13.7-2.2-5.3-3.3-11.1-3.3-17.3s1.1-12.2,3.3-17.4c2.2-5.2,5.2-9.8,9-13.7,3.8-3.9,8.3-6.9,13.5-9,5.2-2.1,10.9-3.2,17-3.2s10,.7,14.5,2.1Z"/>
      <path class="st0" d="M1088.8,450c6.6,4.4,11.4,10.4,14.4,17.8,1.6,3.7,2.6,7.7,3.2,11.8.5,4.2.5,8.6,0,13.1h-62.7c.2,2.9.8,5.6,1.9,8.2,1.1,2.6,2.5,4.8,4.4,6.8,1.9,1.9,4.2,3.4,6.8,4.5,2.6,1.1,5.6,1.7,8.9,1.7s8.6-.9,12.2-2.7c3.5-1.8,6.2-4.7,8-8.6h20.2c-1.5,4.4-3.5,8.4-6.2,11.8-2.6,3.4-5.7,6.3-9.2,8.6-3.5,2.3-7.3,4-11.4,5.2-4.1,1.2-8.4,1.7-12.9,1.7-6.5,0-12.4-1-17.7-3.1-5.3-2.1-10-5-14-8.7-4-3.8-7.1-8.3-9.3-13.7-2.2-5.3-3.3-11.3-3.3-17.9s1.1-11.9,3.3-17.2c2.2-5.3,5.2-9.9,9-13.7,3.8-3.8,8.3-6.8,13.6-9,5.2-2.2,10.9-3.3,17.1-3.3,9.3,0,17.3,2.2,23.9,6.7ZM1056.7,461.3c-2.3,1-4.4,2.3-6.1,4-1.7,1.7-3.2,3.6-4.2,5.7-1.1,2.1-1.8,4.3-2.2,6.5h41.6c-.5-2.6-1.4-5-2.5-7.1-1.1-2.1-2.5-4-4.2-5.6-1.7-1.6-3.7-2.8-6.1-3.7-2.4-.8-5.1-1.3-8-1.3s-5.9.5-8.3,1.4Z"/>
      <path class="st0" d="M1118.9,416.3h22.1v111.2h-22.1v-111.2Z"/>
      <path class="st0" d="M1220,450c6.6,4.4,11.4,10.4,14.4,17.8,1.6,3.7,2.6,7.7,3.2,11.8.5,4.2.5,8.6,0,13.1h-62.7c.2,2.9.8,5.6,1.9,8.2,1.1,2.6,2.5,4.8,4.4,6.8,1.9,1.9,4.2,3.4,6.8,4.5,2.6,1.1,5.6,1.7,8.9,1.7s8.6-.9,12.2-2.7c3.5-1.8,6.2-4.7,8-8.6h20.2c-1.5,4.4-3.5,8.4-6.2,11.8-2.6,3.4-5.7,6.3-9.2,8.6-3.5,2.3-7.3,4-11.4,5.2-4.1,1.2-8.4,1.7-12.9,1.7-6.5,0-12.4-1-17.7-3.1-5.3-2.1-10-5-14-8.7-4-3.8-7.1-8.3-9.3-13.7-2.2-5.3-3.3-11.3-3.3-17.9s1.1-11.9,3.3-17.2c2.2-5.3,5.2-9.9,9-13.7,3.8-3.8,8.3-6.8,13.6-9,5.2-2.2,10.9-3.3,17.1-3.3,9.3,0,17.3,2.2,23.9,6.7ZM1187.9,461.3c-2.3,1-4.4,2.3-6.1,4-1.7,1.7-3.2,3.6-4.2,5.7-1.1,2.1-1.8,4.3-2.2,6.5h41.6c-.5-2.6-1.4-5-2.5-7.1-1.1-2.1-2.5-4-4.2-5.6-1.7-1.6-3.7-2.8-6.1-3.7-2.4-.8-5.1-1.3-8-1.3s-5.9.5-8.3,1.4Z"/>
      <path class="st0" d="M1297.5,443.3c.7,0,1.4,0,1.9.2.6,0,1.2,0,1.6.2v20c-.5-.1-1.1-.2-1.6-.3-.6,0-1.3,0-1.9,0-.6,0-1.4,0-2.2,0-3.3,0-6.3.6-9.1,1.9-2.8,1.3-5.2,3.2-7.3,5.7-2.1,2.5-3.8,5.7-4.9,9.5-1.2,3.8-1.7,8-1.7,12.8v34.5h-21.9v-81.8h19.1l1.9,15.6c1.1-2.8,2.4-5.2,3.9-7.5,1.5-2.2,3.3-4.1,5.3-5.6,2-1.5,4.3-2.7,6.8-3.6,2.5-.8,5.1-1.3,7.7-1.3h2.5Z"/>
      <path class="st0" d="M1335,481.3c3.6-.5,6.6-1,9.1-1.3,2.4-.3,4.9-.7,7.5-1,2.6-.4,4.6-.7,6-.9,2.2-.3,3.9-.9,5-1.7,1.1-.8,1.7-2.1,1.7-3.8,0-4.1-1.3-7.3-3.8-9.5-2.5-2.2-6.5-3.3-11.8-3.3s-4.4.3-6.4.8c-2.1.5-3.9,1.3-5.4,2.4-1.5,1.1-2.8,2.4-3.8,4.1-1,1.6-1.7,3.6-2,5.8h-20c.7-5.1,2.1-9.5,4.2-13.3,2.1-3.8,4.7-6.8,7.9-9.2,3.2-2.4,7-4.1,11.3-5.2,4.3-1.1,8.9-1.7,13.9-1.7s10.4.6,14.9,1.7c4.6,1.1,8.4,3,11.6,5.6,3.2,2.6,5.6,6.1,7.4,10.2,1.7,4.2,2.6,9.3,2.6,15.5v29.7c0,2.8.3,5,.8,6.7.5,1.7,2.2,2.5,4.9,2.5h1.6v14.6h-9.4c-2.1,0-4.1-.3-5.9-.9-1.8-.6-3.4-1.5-4.7-2.6-1.3-1.2-2.4-2.6-3.3-4.2-.9-1.6-1.6-3.6-2-6-1.9,2.4-4.1,4.5-6.4,6.2-2.4,1.7-4.9,3.1-7.5,4.3-2.6,1.2-5.2,2-7.9,2.5s-5.5.7-8.3.7c-4.1,0-8-.5-11.6-1.4-3.6-1-6.7-2.4-9.4-4.2-2.6-1.9-4.7-4.3-6.3-7.2-1.5-3-2.3-6.5-2.3-10.5s.7-7.7,2.2-10.6c1.5-3,3.5-5.5,6-7.5,2.5-2,5.5-3.6,8.8-4.8,3.3-1.2,6.9-2,10.7-2.4ZM1337.1,496c-1.9.5-3.4,1.2-4.8,2-1.3.8-2.4,1.8-3.2,3-.8,1.2-1.2,2.7-1.2,4.5s.3,3,.9,4.2c.6,1.2,1.4,2.2,2.4,2.9,1,.7,2.3,1.2,3.8,1.7,1.5.4,3.4.6,5.5.6s5.5-.5,8.3-1.4c2.8-1,5.3-2.2,7.5-3.8,2.3-1.6,4.1-3.5,5.6-5.8,1.4-2.3,2.2-4.7,2.3-7.2v-7c-.2.1-.8.4-1.7.9-1,.5-2.5.9-4.8,1.4-1.2.2-2.6.5-4.3.8-1.7.3-3.3.6-4.8,1-1.8.3-3.8.7-5.9,1.1-1.9.3-3.8.7-5.6,1.3Z"/>
      <path class="st0" d="M1501.9,416.3l41.1,111.2h-25.4l-8.9-24.8h-42.1l-9.1,24.8h-25.3l41.3-111.2h28.3ZM1472.4,484.1h30.8l-15.4-44.2-15.4,44.2Z"/>
      <path class="st0" d="M1617.9,420c7,2.4,13.1,6,18.3,10.7,5.1,4.7,9.1,10.5,12,17.4,2.9,6.9,4.3,14.8,4.3,23.8s-1.4,16.8-4.3,23.7c-2.9,6.9-6.9,12.8-12,17.5-5.1,4.7-11.2,8.3-18.3,10.7-7,2.4-14.8,3.7-23.3,3.7h-39.1v-111.2h39.1c8.5,0,16.2,1.2,23.3,3.7ZM1578.6,435.2v73.4h15.4c5.8,0,11-.9,15.5-2.6,4.5-1.7,8.3-4.2,11.4-7.5,3.1-3.2,5.4-7.1,6.9-11.7,1.5-4.6,2.3-9.5,2.3-14.9s-.8-10.5-2.3-15c-1.5-4.5-3.8-8.4-6.9-11.6-3.1-3.2-6.9-5.7-11.4-7.5-4.5-1.7-9.7-2.6-15.5-2.6h-15.4Z"/>
      <path class="st0" d="M1724.1,416.2c5.2,1.5,9.8,3.7,13.8,6.7,4,3,7.2,6.7,9.8,11.3,2.5,4.6,4.2,9.9,4.9,16h-23.2c-1.1-5.8-3.5-10.2-7.3-13-3.8-2.9-8.8-4.3-15.1-4.3s-4.4.2-6.7.6c-2.2.4-4.2,1.2-6,2.2-1.7,1.1-3.2,2.4-4.3,4.1-1.1,1.7-1.7,3.8-1.7,6.4s.8,5.4,2.5,7.3c1.6,1.9,3.7,3.4,6.3,4.6,2.5,1.2,5.2,2,8,2.5,2.8.5,5.4,1.1,7.9,1.6,4.9.7,9.8,1.8,14.7,3.1,4.9,1.3,9.4,3.2,13.3,5.7,4,2.5,7.2,5.7,9.7,9.7,2.5,4,3.7,9,3.7,15.2s-1.3,11.9-4.1,16.2c-2.7,4.3-6.2,7.8-10.5,10.4-4.3,2.6-9.1,4.5-14.5,5.6-5.3,1.2-10.7,1.7-16.1,1.7s-12.6-.8-18.1-2.4c-5.5-1.6-10.4-4-14.5-7.2-4.2-3.2-7.6-7.4-10.2-12.4-2.6-5-4.3-11-5.1-18h23c1.1,7.3,3.7,12.7,8,16,4.3,3.4,10.2,5.1,17.7,5.1s4.5-.3,6.9-.8c2.4-.5,4.5-1.3,6.4-2.3,1.9-1,3.4-2.5,4.6-4.4,1.2-1.9,1.7-4.2,1.7-7s-.9-5.5-2.7-7.5c-1.8-2.1-4-3.7-6.6-4.8-2.6-1.2-5.4-2.1-8.5-2.8-3.1-.7-5.8-1.2-8.1-1.5-5.1-1-10.1-2.1-14.9-3.4-4.9-1.3-9.1-3.2-12.8-5.6-3.7-2.4-6.6-5.6-8.9-9.5-2.3-4-3.4-8.9-3.4-14.9s1.2-10.9,3.7-15c2.4-4.1,5.7-7.4,9.8-10,4.1-2.6,8.7-4.5,13.9-5.7,5.2-1.2,10.4-1.8,15.7-1.8s11.8.7,17.1,2.2Z"/>
    </g>
    <g>
      <path class="st0" d="M830.9,573.9l9.7,24.2h-2l-3.1-7.8h-11.1l-3.1,7.8h-2l9.7-24.2h2ZM825,588.7h9.9l-4.9-12.5-4.9,12.5Z"/>
      <path class="st0" d="M857.2,574c1.2.4,2.3,1,3.3,1.8,1,.8,1.8,1.7,2.4,2.8.6,1.1,1.1,2.3,1.3,3.6h-2c-.2-1.1-.5-2-1.1-2.9-.5-.9-1.2-1.6-2-2.2-.8-.6-1.7-1.1-2.7-1.4-1-.3-2.1-.5-3.3-.5s-2.9.3-4.1.9-2.2,1.4-3,2.5c-.8,1-1.4,2.2-1.9,3.5-.4,1.3-.6,2.7-.6,4.1s.2,2.8.6,4.1c.4,1.3,1,2.5,1.9,3.5.8,1,1.8,1.9,3,2.5,1.2.6,2.6.9,4.1.9s2.3-.2,3.3-.5c1-.3,1.9-.8,2.7-1.4s1.4-1.4,2-2.2c.5-.9.9-1.8,1.1-2.9h2c-.3,1.3-.7,2.5-1.3,3.6-.6,1.1-1.4,2-2.4,2.8-1,.8-2.1,1.4-3.3,1.8-1.2.4-2.6.6-4,.6s-3.5-.3-4.9-1c-1.4-.7-2.6-1.6-3.6-2.8-1-1.2-1.7-2.5-2.3-4-.5-1.5-.8-3.1-.8-4.8s.3-3.3.8-4.8c.5-1.5,1.3-2.9,2.3-4,1-1.2,2.2-2.1,3.6-2.8,1.4-.7,3.1-1,4.9-1s2.8.2,4,.6Z"/>
      <path class="st0" d="M883.5,573.9v1.6h-13.3v9.6h12.2v1.6h-12.2v9.8h13.3v1.6h-15.2v-24.2h15.2Z"/>
      <path class="st0" d="M889.9,573.9v22.6h13.3v1.6h-15.2v-24.2h1.9Z"/>
      <path class="st0" d="M922.6,573.9v1.6h-13.3v9.6h12.2v1.6h-12.2v9.8h13.3v1.6h-15.2v-24.2h15.2Z"/>
      <path class="st0" d="M939,574.4c1,.3,1.8.7,2.5,1.3s1.3,1.3,1.7,2.1c.4.9.6,1.9.6,3s-.2,2.2-.6,3.1-1,1.6-1.7,2.1c-.7.6-1.6,1-2.5,1.2-1,.3-2,.4-3.1.4h-6.8v10.4h-1.9v-24.2h8.7c1.1,0,2.2.1,3.1.4ZM929,575.5v10.6h6.9c.8,0,1.6-.1,2.3-.3.7-.2,1.3-.5,1.9-1,.5-.4,1-1,1.3-1.6.3-.7.5-1.4.5-2.3s-.1-1.6-.4-2.3c-.3-.7-.7-1.2-1.2-1.7-.5-.4-1.2-.8-1.9-1-.7-.2-1.5-.3-2.3-.3h-6.9ZM943.7,598.1h-2.2l-6.2-10.9,1.8-.6,6.6,11.5Z"/>
      <path class="st0" d="M957.2,573.9l9.7,24.2h-2l-3.1-7.8h-11.1l-3.1,7.8h-2l9.7-24.2h2ZM951.3,588.7h9.9l-4.9-12.5-4.9,12.5Z"/>
      <path class="st0" d="M982.1,574.8c1.5.6,2.7,1.4,3.8,2.5,1.1,1.1,1.9,2.3,2.5,3.8.6,1.5.9,3.1.9,4.9s-.3,3.4-.9,4.9-1.4,2.8-2.5,3.8c-1.1,1.1-2.3,1.9-3.8,2.5-1.5.6-3.1.9-4.8.9h-7.3v-24.2h7.3c1.8,0,3.4.3,4.8.9ZM971.9,575.5v21h5.3c1.5,0,2.9-.3,4.2-.8,1.3-.5,2.4-1.3,3.3-2.2.9-.9,1.6-2,2.1-3.3.5-1.3.7-2.7.7-4.2s-.2-2.9-.7-4.2c-.5-1.3-1.2-2.4-2.1-3.3-.9-.9-2-1.6-3.3-2.2-1.3-.5-2.7-.8-4.2-.8h-5.3Z"/>
      <path class="st0" d="M1009.1,574.4c1.4.7,2.6,1.6,3.6,2.8,1,1.2,1.8,2.5,2.3,4,.5,1.5.8,3.1.8,4.8s-.3,3.3-.8,4.8c-.5,1.5-1.3,2.9-2.3,4-1,1.2-2.2,2.1-3.6,2.8-1.4.7-3.1,1-4.9,1s-3.5-.3-4.9-1c-1.4-.7-2.6-1.6-3.6-2.8-1-1.2-1.8-2.5-2.3-4-.5-1.5-.8-3.1-.8-4.8s.3-3.3.8-4.8c.5-1.5,1.3-2.9,2.3-4,1-1.2,2.2-2.1,3.6-2.8,1.4-.7,3.1-1,4.9-1s3.5.3,4.9,1ZM1000.1,576c-1.2.6-2.2,1.4-3,2.4-.8,1-1.4,2.2-1.9,3.5-.4,1.3-.6,2.7-.6,4.1s.2,2.8.6,4.1c.4,1.3,1,2.5,1.9,3.5.8,1,1.8,1.8,3,2.4,1.2.6,2.6.9,4.1.9s2.9-.3,4.1-.9,2.2-1.4,3-2.4c.8-1,1.4-2.2,1.9-3.5s.6-2.7.6-4.1-.2-2.8-.6-4.1-1-2.5-1.9-3.5c-.8-1-1.8-1.8-3-2.4s-2.6-.9-4.1-.9-2.9.3-4.1.9Z"/>
      <path class="st0" d="M1031.8,574.4c1,.3,1.8.7,2.5,1.3.7.6,1.3,1.3,1.7,2.1.4.9.6,1.9.6,3s-.2,2.2-.6,3.1-1,1.6-1.7,2.1-1.6,1-2.5,1.2c-1,.3-2,.4-3.1.4h-6.8v10.4h-1.9v-24.2h8.7c1.1,0,2.2.1,3.1.4ZM1021.9,575.5v10.6h6.9c.8,0,1.6-.1,2.3-.3.7-.2,1.3-.5,1.9-1,.5-.4,1-1,1.3-1.6.3-.7.5-1.4.5-2.3s-.1-1.6-.4-2.3c-.3-.7-.7-1.2-1.2-1.7-.5-.4-1.2-.8-1.9-1-.7-.2-1.5-.3-2.3-.3h-6.9ZM1036.6,598.1h-2.2l-6.2-10.9,1.8-.6,6.6,11.5Z"/>
      <path class="st0" d="M1060.1,574.8c1.5.6,2.7,1.4,3.8,2.5s1.9,2.3,2.5,3.8c.6,1.5.9,3.1.9,4.9s-.3,3.4-.9,4.9-1.4,2.8-2.5,3.8c-1.1,1.1-2.3,1.9-3.8,2.5-1.5.6-3.1.9-4.8.9h-7.3v-24.2h7.3c1.8,0,3.4.3,4.8.9ZM1049.9,575.5v21h5.3c1.5,0,2.9-.3,4.2-.8,1.3-.5,2.4-1.3,3.3-2.2.9-.9,1.6-2,2.1-3.3.5-1.3.7-2.7.7-4.2s-.2-2.9-.7-4.2c-.5-1.3-1.2-2.4-2.1-3.3-.9-.9-2-1.6-3.3-2.2-1.3-.5-2.7-.8-4.2-.8h-5.3Z"/>
      <path class="st0" d="M1086.7,573.9v1.6h-13.3v9.6h12.2v1.6h-12.2v9.8h13.3v1.6h-15.2v-24.2h15.2Z"/>
      <path class="st0" d="M1117.1,573.9l-9.3,24.2h-2.2l-9.3-24.2h2l8.4,21.9,8.4-21.9h2Z"/>
      <path class="st0" d="M1135.4,573.9v1.6h-13.3v9.6h12.2v1.6h-12.2v9.8h13.3v1.6h-15.2v-24.2h15.2Z"/>
      <path class="st0" d="M1157.4,573.9v24.2h-2.1l-13.6-21.2v21.2h-1.9v-24.2h2.1l13.5,21.2v-21.2h1.9Z"/>
      <path class="st0" d="M1174.9,574.8c1.5.6,2.7,1.4,3.8,2.5s1.9,2.3,2.5,3.8c.6,1.5.9,3.1.9,4.9s-.3,3.4-.9,4.9-1.4,2.8-2.5,3.8c-1.1,1.1-2.3,1.9-3.8,2.5-1.5.6-3.1.9-4.8.9h-7.3v-24.2h7.3c1.8,0,3.4.3,4.8.9ZM1164.7,575.5v21h5.3c1.5,0,2.9-.3,4.2-.8,1.3-.5,2.4-1.3,3.3-2.2.9-.9,1.6-2,2.1-3.3.5-1.3.7-2.7.7-4.2s-.2-2.9-.7-4.2c-.5-1.3-1.2-2.4-2.1-3.3-.9-.9-2-1.6-3.3-2.2-1.3-.5-2.7-.8-4.2-.8h-5.3Z"/>
      <path class="st0" d="M1194.7,573.9l9.7,24.2h-2l-3.1-7.8h-11.1l-3.1,7.8h-2l9.7-24.2h2ZM1188.8,588.7h9.9l-4.9-12.5-4.9,12.5Z"/>
      <path class="st0" d="M1218.4,573.9c1,.3,1.9.7,2.6,1.3.8.6,1.4,1.3,1.9,2.2.5.9.9,1.9,1,3.1h-1.9c-.4-1.8-1.2-3.2-2.4-4.1-1.2-.9-2.7-1.4-4.6-1.4s-1.6,0-2.3.2c-.8.2-1.4.4-2,.8-.6.4-1.1.8-1.5,1.4-.4.6-.6,1.3-.6,2.2s.2,1.8.6,2.4c.4.6,1,1.1,1.6,1.5s1.4.6,2.2.8c.8.2,1.7.3,2.5.5,1,.2,2,.4,3.1.7,1,.3,2,.7,2.8,1.2.8.5,1.5,1.2,2.1,2,.5.8.8,1.9.8,3.2s-.3,2.3-.8,3.2c-.5.9-1.2,1.6-2,2.1-.8.5-1.7.9-2.8,1.2-1,.2-2.1.3-3.1.3s-2.6-.2-3.7-.5c-1.1-.3-2.1-.8-2.9-1.5-.8-.7-1.5-1.5-2-2.5s-.9-2.2-1.1-3.5h1.9c.3,2.2,1.2,3.9,2.5,4.8,1.3,1,3.1,1.5,5.3,1.5s1.6,0,2.4-.3c.8-.2,1.5-.5,2.1-.9.6-.4,1.1-.9,1.5-1.6.4-.6.6-1.5.6-2.4s-.2-1.8-.7-2.5c-.5-.6-1.1-1.2-1.8-1.6-.7-.4-1.5-.7-2.4-.9-.9-.2-1.7-.4-2.5-.5-1.1-.2-2.2-.4-3.2-.7-1-.3-1.9-.7-2.6-1.2-.8-.5-1.3-1.1-1.8-1.9-.4-.8-.7-1.8-.7-3s.2-2.1.7-2.9c.5-.8,1.1-1.4,1.9-1.9.8-.5,1.7-.9,2.7-1.1,1-.2,2-.4,3.1-.4s2.3.2,3.3.5Z"/>
    </g>
  </g>
</svg>